<?xml version="1.0" encoding="iso-8859-1"?>
<!-- Generator: Adobe Illustrator 18.0.0, SVG Export Plug-In . SVG Version: 6.00 Build 0)  -->
<!DOCTYPE svg PUBLIC "-//W3C//DTD SVG 1.1//EN" "http://www.w3.org/Graphics/SVG/1.1/DTD/svg11.dtd">
<svg version="1.1" id="Capa_1" xmlns="http://www.w3.org/2000/svg" xmlns:xlink="http://www.w3.org/1999/xlink" x="0px" y="0px"
	 viewBox="0 0 297 297" style="enable-background:new 0 0 297 297;" xml:space="preserve">
<g>
	<path d="M109.056,40.492c0-2.57-1.035-5.092-2.852-6.909c-1.828-1.818-4.34-2.863-6.92-2.863c-2.568,0-5.08,1.045-6.908,2.863
		c-1.816,1.817-2.852,4.339-2.852,6.909c0,2.569,1.035,5.091,2.852,6.907c1.828,1.818,4.34,2.864,6.908,2.864
		c2.58,0,5.092-1.046,6.92-2.864C108.021,45.583,109.056,43.062,109.056,40.492z"/>
	<path d="M164.273,93.676c-0.865,0-1.725,0.114-2.559,0.34c-0.068,0.02-7.115,1.869-15.361,1.869c-7.06,0-12.799-1.362-16.59-3.941
		c-1.676-1.14-6.775-4.606-6.775-16.346c0-2.43,3.606-9.683,5.76-14.016c4.014-8.074,8.166-16.424,8.166-23.962
		C136.913,16.877,120.036,0,99.292,0C78.546,0,61.669,16.877,61.669,37.621c0,7.537,4.15,15.887,8.166,23.962
		c2.152,4.333,5.758,11.585,5.758,14.015c0,10.032-2.775,20.287-23.365,20.287c-8.252,0-15.311-1.856-15.359-1.868
		c-0.834-0.227-1.695-0.341-2.561-0.341c-15.625,0-28.338,12.713-28.338,28.338v143.888c0,15.625,12.713,28.338,28.338,28.338
		l129.965,0.001c15.625,0,28.338-12.713,28.338-28.339V122.015C192.61,106.389,179.897,93.676,164.273,93.676z M173.067,265.901
		c0,4.85-3.945,8.796-8.795,8.796l-129.965-0.002c-4.85,0-8.793-3.944-8.793-8.794V122.014c0-4.526,3.438-8.265,7.836-8.743
		c3.133,0.718,10.471,2.158,18.877,2.158c26.867-0.001,42.908-14.891,42.908-39.831c0-7.019-3.789-14.644-7.801-22.715
		c-2.44-4.904-6.123-12.313-6.123-15.262c0-9.968,8.111-18.077,18.08-18.077c9.969,0,18.078,8.109,18.078,18.077
		c0,2.948-3.686,10.359-6.123,15.262c-4.012,8.072-7.803,15.696-7.803,22.716c0,18.253,8.336,27.752,15.328,32.507
		c7.148,4.859,16.428,7.323,27.582,7.323c8.404-0.001,15.742-1.44,18.875-2.158c4.4,0.478,7.838,4.217,7.838,8.744V265.901z"/>
	<path d="M284.458,3.898c-3.932-1.363-8.299-0.084-10.875,3.184c-0.926,1.175-22.789,29.002-33.313,50.049
		c-33.48,66.963-17.555,132.628-16.859,135.391c1.092,4.345,4.998,7.391,9.477,7.391h5.221v87.201
		c-0.031,2.612,0.984,5.127,2.82,6.984c1.836,1.857,4.338,2.902,6.951,2.902h33.379c5.395,0,9.772-4.375,9.772-9.772V13.131
		C291.03,8.969,288.392,5.262,284.458,3.898z M271.485,277.457h-13.719v-77.545h13.719V277.457z M271.485,180.368h-30.514
		c-2.854-18.085-7.207-66.521,16.779-114.497c3.539-7.077,8.66-15.224,13.734-22.713V180.368z"/>
</g>
<g>
</g>
<g>
</g>
<g>
</g>
<g>
</g>
<g>
</g>
<g>
</g>
<g>
</g>
<g>
</g>
<g>
</g>
<g>
</g>
<g>
</g>
<g>
</g>
<g>
</g>
<g>
</g>
<g>
</g>
</svg>
